<?xml version="1.0" encoding="utf-8"?>
<!-- Svg Vector Icons : http://www.onlinewebfonts.com/icon -->
<!DOCTYPE svg PUBLIC "-//W3C//DTD SVG 1.1//EN" "http://www.w3.org/Graphics/SVG/1.1/DTD/svg11.dtd">
<svg version="1.1" xmlns="http://www.w3.org/2000/svg" xmlns:xlink="http://www.w3.org/1999/xlink" x="0px" y="0px" viewBox="0 0 256 256" enable-background="new 0 0 256 256" xml:space="preserve">
<metadata> Svg Vector Icons : http://www.onlinewebfonts.com/icon </metadata>
<g><g><g><path fill="#000000" d="M80.7,10.5c-1.9,0.8-3.8,3.2-4.1,5c-0.1,0.8-0.2,7.1-0.1,14c0.1,11.8,0.2,12.6,1.1,13.8c1.8,2.4,3.3,3.2,6.2,3.2s4.4-0.7,6.2-3.2c0.9-1.2,1-1.8,1-15s0-13.8-1-15c-0.5-0.7-1.5-1.7-2.1-2.2C86.2,10,82.6,9.7,80.7,10.5z"/><path fill="#000000" d="M33.5,30.3c-2.9,1.5-4.4,4.5-3.9,7.7c0.3,2.1,0.7,2.5,9.8,11.7c10.3,10.3,10.7,10.6,14.7,9.8c2.3-0.4,5-3.2,5.4-5.4c0.7-3.9,0.4-4.5-8.9-13.8c-4.7-4.8-9.2-9.1-9.9-9.6C38.8,29.2,35.9,29,33.5,30.3z"/><path fill="#000000" d="M128.2,29.8c-1.7,0.5-18.9,17.6-19.9,19.6c-2.5,5.8,3.1,11.8,9.1,9.9c1.1-0.4,4.4-3.4,10.8-9.9c8.9-8.9,9.3-9.4,9.6-11.5c0.5-3.2-1.1-6.2-3.9-7.7C131.8,29.2,130.5,29.1,128.2,29.8z"/><path fill="#000000" d="M80.3,71.4c-0.7,0.3-3.1,2.3-5.2,4.5c-4,4.1-4.7,5.6-4.1,9c0.3,1.6,8.7,10.1,79.2,80.7c46.6,46.7,79.5,79.3,80.4,79.7c3.5,1.5,5.8,0.6,10.4-3.9c4.6-4.4,5.7-7.1,4.5-10.5C244.8,229.1,88.1,72.2,86.2,71.4C84.3,70.6,82.1,70.6,80.3,71.4z"/><path fill="#000000" d="M14.3,76.9c-3.1,1.3-4.8,4.9-4.2,8.3c0.4,2.2,2.7,4.7,4.8,5.3c1.1,0.3,6.3,0.4,14.5,0.3c12-0.1,12.8-0.2,14-1.1c2.4-1.8,3.2-3.3,3.2-6.2s-0.7-4.4-3.2-6.2c-1.2-0.9-1.9-1-14.5-1.1C18.7,76.3,15.4,76.4,14.3,76.9z"/><path fill="#000000" d="M125,76.9c-3.1,1.3-4.8,4.9-4.2,8.3c0.4,2.2,2.7,4.7,4.8,5.3c1.1,0.3,6.3,0.4,14.5,0.3c12-0.1,12.8-0.2,14-1.1c2.4-1.8,3.2-3.3,3.2-6.2s-0.7-4.4-3.2-6.2c-1.2-0.9-1.9-1-14.5-1.1C129.3,76.3,126,76.4,125,76.9z"/><path fill="#000000" d="M49.4,108.3c-0.7,0.4-5.4,4.7-10.5,9.8c-8.7,8.8-9.1,9.3-9.4,11.3c-0.7,4.9,3.5,9.2,8.4,8.4c2.1-0.3,2.6-0.7,11.5-9.6c9.9-9.8,10.6-10.8,10.1-14.3C59,109.2,53.8,106.3,49.4,108.3z"/><path fill="#000000" d="M80.7,121.2c-1.9,0.8-3.8,3.2-4.1,5c-0.1,0.8-0.2,7.1-0.1,14c0.1,11.8,0.2,12.6,1.1,13.8c1.8,2.4,3.3,3.2,6.2,3.2s4.4-0.7,6.2-3.2c0.9-1.2,1-1.8,1-15s0-13.8-1-15c-0.5-0.7-1.5-1.7-2.1-2.2C86.2,120.6,82.6,120.3,80.7,121.2z"/></g></g></g>
</svg>